<svg width="34" height="28" viewBox="0 0 34 28" fill="none" xmlns="http://www.w3.org/2000/svg">
<g clip-path="url(#clip0_155_383)" filter="url(#filter0_d_155_383)">
<path d="M8.72671 19.9007V18.577C8.72671 18.0695 8.41451 17.7386 7.87937 17.7386C7.61186 17.7386 7.322 17.8268 7.12131 18.1137C6.96531 17.871 6.74238 17.7386 6.40794 17.7386C6.18491 17.7386 5.96208 17.8047 5.78363 18.0475V17.7827H5.31543V19.9007H5.78363V18.7314C5.78363 18.3564 5.98432 18.1798 6.29652 18.1798C6.60852 18.1798 6.76473 18.3784 6.76473 18.7314V19.9007H7.23293V18.7314C7.23293 18.3564 7.45576 18.1798 7.74562 18.1798C8.05782 18.1798 8.21382 18.3784 8.21382 18.7314V19.9007H8.72671ZM15.6605 17.7827H14.9025V17.1429H14.4343V17.7827H14.0107V18.2018H14.4342V19.1727C14.4342 19.6581 14.6349 19.9448 15.17 19.9448C15.3707 19.9448 15.5936 19.8787 15.7498 19.7905L15.6159 19.3933C15.4821 19.4815 15.3261 19.5036 15.2146 19.5036C14.9917 19.5036 14.9025 19.3713 14.9025 19.1506V18.2018H15.6605V17.7827ZM19.6291 17.7385C19.3616 17.7385 19.1833 17.871 19.0718 18.0475V17.7827H18.6036V19.9007H19.0718V18.7094C19.0718 18.3564 19.2278 18.1578 19.5176 18.1578C19.6068 18.1578 19.7183 18.1799 19.8075 18.2019L19.9412 17.7607C19.8521 17.7386 19.7183 17.7386 19.6291 17.7386V17.7385ZM13.6317 17.9592C13.4086 17.8047 13.0965 17.7386 12.7621 17.7386C12.2271 17.7386 11.8704 18.0033 11.8704 18.4225C11.8704 18.7756 12.1379 18.9741 12.6061 19.0403L12.829 19.0624C13.0743 19.1064 13.2081 19.1727 13.2081 19.283C13.2081 19.4374 13.0297 19.5478 12.7175 19.5478C12.4054 19.5478 12.1601 19.4374 12.004 19.3272L11.7811 19.6801C12.0264 19.8566 12.3608 19.9448 12.6952 19.9448C13.3195 19.9448 13.6763 19.6581 13.6763 19.2609C13.6763 18.8858 13.3864 18.6873 12.9404 18.6211L12.7175 18.599C12.5168 18.5769 12.3608 18.5329 12.3608 18.4005C12.3608 18.246 12.5168 18.1578 12.7621 18.1578C13.0297 18.1578 13.2972 18.2681 13.431 18.3343L13.6317 17.9592ZM26.0726 17.7386C25.805 17.7386 25.6266 17.871 25.5151 18.0475V17.7827H25.0469V19.9007H25.5151V18.7094C25.5151 18.3564 25.6712 18.1578 25.961 18.1578C26.0502 18.1578 26.1617 18.1799 26.2509 18.2019L26.3847 17.7607C26.2955 17.7386 26.1617 17.7386 26.0726 17.7386ZM20.0973 18.8417C20.0973 19.4815 20.5432 19.9448 21.2344 19.9448C21.5465 19.9448 21.7695 19.8787 21.9924 19.7022L21.7695 19.3272C21.5911 19.4595 21.4128 19.5256 21.2121 19.5256C20.8331 19.5256 20.5655 19.2609 20.5655 18.8417C20.5655 18.4446 20.8331 18.1798 21.2121 18.1578C21.4128 18.1578 21.5911 18.2239 21.7695 18.3564L21.9924 17.9813C21.7695 17.8047 21.5465 17.7386 21.2344 17.7386C20.5432 17.7386 20.0973 18.2019 20.0973 18.8417ZM24.4227 18.8417V17.7827H23.9545V18.0475C23.7984 17.849 23.5755 17.7386 23.2856 17.7386C22.6836 17.7386 22.2154 18.2019 22.2154 18.8417C22.2154 19.4815 22.6836 19.9448 23.2856 19.9448C23.5977 19.9448 23.8207 19.8346 23.9545 19.636V19.9007H24.4227V18.8417ZM22.7059 18.8417C22.7059 18.4666 22.9511 18.1578 23.3524 18.1578C23.7315 18.1578 23.9991 18.4446 23.9991 18.8417C23.9991 19.2168 23.7315 19.5256 23.3524 19.5256C22.9511 19.5035 22.7059 19.2168 22.7059 18.8417ZM17.1098 17.7386C16.4855 17.7386 16.0395 18.1798 16.0395 18.8417C16.0395 19.5036 16.4854 19.9448 17.132 19.9448C17.4441 19.9448 17.7563 19.8566 18.0016 19.6581L17.7786 19.3272C17.6002 19.4595 17.3773 19.5478 17.1544 19.5478C16.8645 19.5478 16.5746 19.4154 16.5077 19.0402H18.0908V18.8638C18.1131 18.1798 17.7118 17.7386 17.1098 17.7386ZM17.1098 18.1357C17.3995 18.1357 17.6003 18.3123 17.6448 18.6432H16.5301C16.5746 18.3564 16.7753 18.1357 17.1098 18.1357ZM28.7257 18.8417V16.9443H28.2575V18.0475C28.1014 17.849 27.8785 17.7386 27.5886 17.7386C26.9866 17.7386 26.5184 18.2019 26.5184 18.8417C26.5184 19.4815 26.9866 19.9448 27.5886 19.9448C27.9008 19.9448 28.1237 19.8346 28.2575 19.636V19.9007H28.7257V18.8417ZM27.009 18.8417C27.009 18.4666 27.2541 18.1578 27.6555 18.1578C28.0346 18.1578 28.3021 18.4446 28.3021 18.8417C28.3021 19.2168 28.0346 19.5256 27.6555 19.5256C27.2541 19.5035 27.009 19.2168 27.009 18.8417ZM11.3575 18.8417V17.7827H10.8893V18.0475C10.7332 17.849 10.5102 17.7386 10.2204 17.7386C9.61843 17.7386 9.15023 18.2019 9.15023 18.8417C9.15023 19.4815 9.61843 19.9448 10.2204 19.9448C10.5326 19.9448 10.7555 19.8346 10.8893 19.636V19.9007H11.3575V18.8417ZM9.61843 18.8417C9.61843 18.4666 9.8637 18.1578 10.265 18.1578C10.644 18.1578 10.9116 18.4446 10.9116 18.8417C10.9116 19.2168 10.644 19.5256 10.265 19.5256C9.8637 19.5035 9.61843 19.2168 9.61843 18.8417Z" fill="#151618"/>
<path d="M13.4756 1.69873H20.4986V14.1863H13.4756V1.69873Z" fill="#FF5F00"/>
<path d="M13.9215 7.94261C13.9215 5.40543 15.1255 3.15497 16.9759 1.69879C15.616 0.639799 13.8993 0 12.0265 0C7.58952 0 4 3.55206 4 7.94261C4 12.3331 7.58952 15.8852 12.0264 15.8852C13.8992 15.8852 15.6159 15.2454 16.9759 14.1863C15.1255 12.7523 13.9215 10.4798 13.9215 7.94261Z" fill="#EB001B"/>
<path d="M29.974 7.94261C29.974 12.3331 26.3845 15.8852 21.9476 15.8852C20.0748 15.8852 18.3581 15.2454 16.998 14.1863C18.8709 12.7303 20.0525 10.4798 20.0525 7.94261C20.0525 5.40543 18.8485 3.15497 16.998 1.69879C18.358 0.639799 20.0748 0 21.9476 0C26.3845 0 29.974 3.57417 29.974 7.94261Z" fill="#F79E1B"/>
</g>
<defs>
<filter id="filter0_d_155_383" x="0" y="0" width="34" height="28" filterUnits="userSpaceOnUse" color-interpolation-filters="sRGB">
<feFlood flood-opacity="0" result="BackgroundImageFix"/>
<feColorMatrix in="SourceAlpha" type="matrix" values="0 0 0 0 0 0 0 0 0 0 0 0 0 0 0 0 0 0 127 0" result="hardAlpha"/>
<feOffset dy="4"/>
<feGaussianBlur stdDeviation="2"/>
<feComposite in2="hardAlpha" operator="out"/>
<feColorMatrix type="matrix" values="0 0 0 0 0 0 0 0 0 0 0 0 0 0 0 0 0 0 0.25 0"/>
<feBlend mode="normal" in2="BackgroundImageFix" result="effect1_dropShadow_155_383"/>
<feBlend mode="normal" in="SourceGraphic" in2="effect1_dropShadow_155_383" result="shape"/>
</filter>
<clipPath id="clip0_155_383">
<rect width="26" height="20" fill="white" transform="translate(4)"/>
</clipPath>
</defs>
</svg>
